<svg id="Group_5" data-name="Group 5" xmlns="http://www.w3.org/2000/svg" width="83.155" height="79.542" viewBox="0 0 83.155 79.542">
  <path id="Path_56" data-name="Path 56" d="M135.2,233.818c-21.245-.013-42.846-.014-63.735-.014H55.005c-.539,0-1.445-.147-1.462-1.133a1.064,1.064,0,0,1,.264-.792,1.7,1.7,0,0,1,1.216-.379c.511,0,1.021,0,1.539,0l2.991,0V216.9q0-17.005,0-34.011c0-1.584.241-1.822,1.842-1.822h9.942c1.622,0,1.887.263,1.888,1.88,0,1,0,4.829,0,4.829h13.84v-7.4q0-9.139,0-18.277c0-1.191.358-1.554,1.532-1.558l1.555,0h3v-.494c0-.428.005-.847.01-1.26.012-.961.023-1.869-.029-2.792a1.7,1.7,0,0,1,.806-1.716h29.621a2.006,2.006,0,0,1,.778,1.923c-.042.864-.033,1.719-.023,2.624,0,.4.009.8.009,1.221v.494h3.949c1.379,0,1.7.308,1.7,1.64q0,13.68,0,27.361v.067a2.91,2.91,0,0,1-.063.772,1.071,1.071,0,0,1-1.086.73c-.043,0-.087,0-.131-.006a1.1,1.1,0,0,1-1.011-.995,4.134,4.134,0,0,1-.014-.542c0-.074,0-.147,0-.22V162.925H89.4v68.512h12.46v-4.818q0-4.447,0-8.893c0-1.19.348-1.535,1.548-1.538q2.5-.007,4.991-.007,2.475,0,4.949.007c1.207,0,1.538.337,1.54,1.551.007,2.922.006,5.893,0,8.767v4.925h12.771V224.66q0-9.913,0-19.826c0-1.181.538-1.414,1.007-1.486a1.093,1.093,0,0,1,.164-.013,1.124,1.124,0,0,1,1.109.947,5.067,5.067,0,0,1,.024.7c0,.074,0,.147,0,.221q0,10.09,0,20.18V231.5h.494c.452,0,.9,0,1.336.009s.86.008,1.285.008c.669,0,1.218-.011,1.728-.034.073,0,.146-.005.217-.005a1.919,1.919,0,0,1,1.665.694v.851a1.575,1.575,0,0,1-1.5.8Zm-60.614-11.5q1.574,0,3.148,0c1.011,0,1.426.417,1.43,1.426q.009,2.219,0,4.438v3.263H87V190.241H61.97v41.191h7.563v-1.456q0-.916,0-1.832c0-1.391,0-2.83,0-4.244.006-1.174.4-1.572,1.548-1.574Q72.835,222.322,74.587,222.322Zm29.628,9.116h8.3V218.555h-8.3Zm-32.259,0h4.832v-6.742H71.956Zm-10-43.648h8.858V183.4H61.955Zm33.527-27.3h26.4v-3.83h-26.4Z" transform="translate(-53.543 -154.277)"/>
  <path id="Path_57" data-name="Path 57" d="M315.632,344.486q-1.626,0-3.252-.007a1.177,1.177,0,0,1-1.349-1.329c-.008-.774-.006-1.564,0-2.327q0-.516,0-1.032t0-1.016c0-.741,0-1.508,0-2.26a1.164,1.164,0,0,1,1.284-1.325c1.118-.015,2.249-.022,3.362-.022s2.243.008,3.353.023a1.149,1.149,0,0,1,1.283,1.259c.042,2.333.041,4.618,0,6.791-.022,1.105-.794,1.236-1.372,1.239Q317.287,344.486,315.632,344.486Zm-2.263-2.377h4.55V337.6h-4.55Z" transform="translate(-268.626 -305.38)"/>
  <path id="Path_58" data-name="Path 58" d="M315.633,257.414c-1.137,0-2.268-.012-3.359-.034-.528-.011-1.23-.165-1.239-1.372-.006-.749,0-1.513,0-2.251q0-.514,0-1.027t0-1.006c0-.745,0-1.515,0-2.272.008-.932.414-1.349,1.317-1.353q1.638-.008,3.276-.008,1.683,0,3.366.008c.86,0,1.3.407,1.32,1.2.046,2.248.046,4.56,0,6.871a1.133,1.133,0,0,1-1.249,1.212C317.9,257.4,316.745,257.414,315.633,257.414Zm-2.228-2.428h4.517v-4.547H313.4Z" transform="translate(-268.629 -232.643)"/>
  <path id="Path_59" data-name="Path 59" d="M315.65,431.955c-1.2,0-2.37-.011-3.487-.033-.763-.015-1.136-.432-1.141-1.275-.012-2.459-.012-4.658,0-6.721a1.121,1.121,0,0,1,1.251-1.246q.676-.01,1.353-.009l1.01,0,1.013,0,1.041,0,1.031,0q.633,0,1.266.006c.846.01,1.284.388,1.3,1.125.054,2.3.053,4.665,0,7.029a1.058,1.058,0,0,1-1.169,1.094C317.918,431.945,316.752,431.955,315.65,431.955Zm-2.271-2.382h4.513v-4.538h-4.513Z" transform="translate(-268.615 -378.475)"/>
  <path id="Path_60" data-name="Path 60" d="M409.23,257.417c-1.149,0-2.312-.013-3.459-.038-.793-.017-1.183-.452-1.19-1.329-.019-2.357-.019-4.527,0-6.635.009-.929.4-1.309,1.349-1.313q1.644-.006,3.287-.006t3.272.006c.938,0,1.327.386,1.343,1.32.013.774.01,1.565.007,2.329q0,.513,0,1.025t0,1.009c0,.743.006,1.511-.007,2.264-.019,1.17-.69,1.32-1.192,1.331C411.508,257.4,410.361,257.417,409.23,257.417Zm-2.306-2.439h4.543v-4.522h-4.543Z" transform="translate(-346.764 -232.646)"/>
  <path id="Path_61" data-name="Path 61" d="M411.281,344.487l-1.013,0-1.017,0-1.025,0-1.037,0q-.652,0-1.3-.007c-.856-.01-1.277-.408-1.286-1.215-.026-2.245-.026-4.559,0-6.878a1.087,1.087,0,0,1,1.157-1.187c1.166-.02,2.326-.03,3.446-.03,1.186,0,2.366.011,3.508.034a1.089,1.089,0,0,1,1.127,1.215c.022,2.488.021,4.738,0,6.88a1.106,1.106,0,0,1-1.235,1.18C412.157,344.485,411.719,344.487,411.281,344.487Zm-4.311-2.355h4.516V337.6h-4.516Z" transform="translate(-346.772 -305.381)"/>
  <path id="Path_62" data-name="Path 62" d="M409.156,431.958c-1.115,0-2.26-.01-3.4-.029a1.041,1.041,0,0,1-1.157-1.171c-.028-2.282-.028-4.6,0-6.877.01-.819.407-1.19,1.287-1.2.436-.005.872-.007,1.308-.007l1.01,0,1.013,0,1,0,1.032,0q.633,0,1.266.006c.93.01,1.313.372,1.321,1.248.022,2.28.021,4.566,0,6.8-.008.793-.376,1.186-1.126,1.2C411.543,431.947,410.349,431.958,409.156,431.958Zm-2.2-2.38h4.52V425.03h-4.52Z" transform="translate(-346.77 -378.477)"/>
  <path id="Path_63" data-name="Path 63" d="M504.885,411.673a1.2,1.2,0,0,1-1.185-1.129,1.1,1.1,0,0,1,.315-.8,1.193,1.193,0,0,1,.859-.349,1.071,1.071,0,0,1,1.114,1.108,1.121,1.121,0,0,1-1.073,1.167Z" transform="translate(-429.571 -367.387)"/>
  <path id="Path_64" data-name="Path 64" d="M173.847,424.026c-.694-.008-1.149-.553-1.158-1.388-.018-1.669-.015-3.369-.012-5.012q0-1.022,0-2.043V403.1c0-.067,0-.133,0-.2,0-.176,0-.343.008-.5.057-.792.513-1.3,1.163-1.3h.019a1.22,1.22,0,0,1,1.165,1.312c.021,1.059.016,2.14.012,3.185q0,.661,0,1.321V422.2c0,.128,0,.256,0,.384-.024.878-.487,1.446-1.179,1.446Z" transform="translate(-153.057 -360.453)"/>
  <path id="Path_65" data-name="Path 65" d="M214.722,424.017a1.179,1.179,0,0,1-1.131-1.026,4.222,4.222,0,0,1-.045-.728q0-8.338,0-16.675v-2.871c0-.073,0-.145,0-.218.04-.874.476-1.4,1.167-1.412h.02c.7,0,1.169.575,1.173,1.431.01,2.372.008,4.784.007,7.117q0,1.449,0,2.9v1.613q0,4.037,0,8.075v.05a3.955,3.955,0,0,1-.046.751,1.175,1.175,0,0,1-1.123,1Z" transform="translate(-187.196 -360.444)"/>
  <path id="Path_66" data-name="Path 66" d="M133.03,424.021a1.013,1.013,0,0,1-.47-.125,1.909,1.909,0,0,1-.745-.992,3.136,3.136,0,0,1-.068-1.075c.007-.16.013-.319.013-.475q0-9.194,0-18.388c0-1.867.84-1.879,1.157-1.884h.023c.29,0,1.171,0,1.171,1.923v9.523q0,1.468,0,2.937c0,2.32,0,4.718-.005,7.077C134.1,423.371,133.63,424.021,133.03,424.021Z" transform="translate(-118.859 -360.44)"/>
</svg>
