<svg id="Group_6" data-name="Group 6" xmlns="http://www.w3.org/2000/svg" width="82.809" height="93.068" viewBox="0 0 82.809 93.068">
  <path id="Path_97" data-name="Path 97" d="M161.627,227.525c-.113.525-.2,1.059-.344,1.573a5.742,5.742,0,0,1-5.576,4.236q-7.224.017-14.447,0c-1.07,0-1.65-.5-1.643-1.372s.575-1.344,1.669-1.345q7-.005,13.993,0a3.367,3.367,0,0,0,2.975-1.424c.431-.611.418-.972-.339-1.383-6.484-3.522-12.941-7.091-19.407-10.645-5.379-2.957-10.776-5.883-16.126-8.892a4.1,4.1,0,0,0-4.416.022q-17.612,9.755-35.276,19.414c-.313.172-.618.358-.91.527a2.954,2.954,0,0,0,2.785,2.363c.331.029.666.015,1,.015h48.7a6.3,6.3,0,0,1,.907.014,1.356,1.356,0,0,1-.007,2.693,4.871,4.871,0,0,1-.726.013H85.1c-3.765,0-6.25-2.385-6.266-6.136-.033-8.087-.011-16.174-.007-24.261a3.306,3.306,0,0,1,.088-.808,1.224,1.224,0,0,1,1.246-.989,1.206,1.206,0,0,1,1.319.887,4.106,4.106,0,0,1,.133,1.16q.011,10.4.005,20.808v1.156l29.083-15.98L81.745,180.056c-.045.458-.12.874-.12,1.289-.008,4.846,0,9.692-.01,14.539a3.844,3.844,0,0,1-.114,1.073,1.235,1.235,0,0,1-1.377.934,1.218,1.218,0,0,1-1.212-1.028,4.675,4.675,0,0,1-.083-.991c-.005-4.786.011-9.571-.011-14.357a6.587,6.587,0,0,1,2.141-5.1c1.459-1.365,2.842-2.812,4.3-4.181A2.128,2.128,0,0,0,86,170.5c-.038-3.543.08-7.091-.044-10.63a6.1,6.1,0,0,1,6.428-6.4c3.692.108,7.39.009,11.084.037a1.944,1.944,0,0,0,1.506-.632c3.292-3.262,6.624-6.482,9.9-9.758a9.739,9.739,0,0,1,4.22-2.84h2.181a9.885,9.885,0,0,1,4.284,2.9q4.913,4.916,9.927,9.729a2.259,2.259,0,0,0,1.414.559c3.785.045,7.571,0,11.357.033,3.06.024,5.4,1.727,5.937,4.573a22.527,22.527,0,0,1,.124,4.882A1.158,1.158,0,0,1,152.95,164a1.312,1.312,0,0,1-1.3-1.377c-.032-1-.005-2-.012-3a3.134,3.134,0,0,0-3.329-3.368q-28.119-.007-56.239,0a3.124,3.124,0,0,0-3.343,3.352q-.009,11.312.018,22.624a1.829,1.829,0,0,0,.482,1.167q11.833,11.873,23.7,23.715a.854.854,0,0,0,1.236.172c1.039-.617,2.107-1.188,3.176-1.753a5.72,5.72,0,0,1,5.564-.064c1.048.538,2.1,1.077,3.1,1.7a1.077,1.077,0,0,0,1.6-.209q10.383-10.432,20.816-20.814c.9-.9,1.831-1.769,2.682-2.713a2.064,2.064,0,0,0,.519-1.242c.037-4.361.023-8.722.023-13.083a4.952,4.952,0,0,1,.018-.816,1.365,1.365,0,0,1,1.357-1.231,1.311,1.311,0,0,1,1.347,1.31,21.443,21.443,0,0,1,.012,2.27,1.672,1.672,0,0,0,.58,1.43c1.109,1.03,2.135,2.15,3.26,3.163,1.7,1.528,3.163,3.171,3.409,5.574Zm-2.961-47.564L129.64,209.148,158.666,225.1Zm-26.709-26.5a3.76,3.76,0,0,0-.287-.4c-3.089-3.035-6.166-6.084-9.28-9.093a2.988,2.988,0,0,0-4.454.044q-4.557,4.436-9.079,8.909a5.517,5.517,0,0,0-.413.535ZM85.911,180.048v-4.421l-2.092,2.157Zm68.528-4.64v4.456l2.2-2.216Z" transform="translate(-78.818 -140.277)"/>
  <path id="Path_98" data-name="Path 98" d="M248.065,290.181a2.031,2.031,0,0,0-.284.169c-2.928,2.6-6.9,1.62-8.843-1.6a8.328,8.328,0,0,1-.352-8.562c1.744-3.369,5.125-4.3,8.947-2.54.023-.151.045-.287.064-.424.128-.941.643-1.442,1.451-1.41s1.3.557,1.3,1.536c0,3.149-.028,6.3-.045,9.447,0,.151,0,.3,0,.454-.025.963-.017,1.942,1.061,2.377a2.638,2.638,0,0,0,2.746-1.2,8.867,8.867,0,0,0,1.375-6.066,10.748,10.748,0,0,0-9.71-9.063,10.983,10.983,0,0,0-2.067,21.869c.241.023.482.052.721.09.936.148,1.4.68,1.331,1.5a1.383,1.383,0,0,1-1.607,1.234,14.017,14.017,0,0,1-6.05-1.725,13.758,13.758,0,0,1-6.854-14.6,13.9,13.9,0,0,1,11.567-11.051,13.617,13.617,0,0,1,15.375,11.066,11.529,11.529,0,0,1-1.671,8.091,5.457,5.457,0,0,1-3.88,2.595A4.131,4.131,0,0,1,248.065,290.181Zm-.457-6.518a12.47,12.47,0,0,0-.517-2.061,3.176,3.176,0,0,0-5.661-.76,5.852,5.852,0,0,0,.468,7.265,2.851,2.851,0,0,0,4.491-.307A6.677,6.677,0,0,0,247.608,283.664Z" transform="translate(-203.301 -246.769)"/>
</svg>
