<svg id="Group_7" data-name="Group 7" xmlns="http://www.w3.org/2000/svg" width="66.261" height="66.339" viewBox="0 0 66.261 66.339">
  <path id="Path_99" data-name="Path 99" d="M334.651,140.277c1.124.17,2.26.282,3.369.518,9.936,2.121,16.926,7.879,21.006,17.16a25.461,25.461,0,0,1,2.04,8.357,3.209,3.209,0,0,0,.116.5v2.459a4.261,4.261,0,0,1-1.153.823c-.752.216-1.414-.486-1.434-1.4a24.877,24.877,0,0,0-1.544-8.6c-3.639-9.328-10.365-14.994-20.232-16.845a32.294,32.294,0,0,0-3.787-.366c-.993-.067-1.43-.284-1.633-.951-.242-.794.233-1.243.794-1.652Z" transform="translate(-294.922 -140.277)"/>
  <path id="Path_100" data-name="Path 100" d="M50.541,225.383a14.773,14.773,0,0,1,4.3-9.433c.9-.956,1.844-1.877,2.786-2.8A3.676,3.676,0,0,1,63,213.147q5.118,5.084,10.2,10.2a3.679,3.679,0,0,1,.013,5.423c-1.34,1.374-2.714,2.715-4.067,4.076a2.608,2.608,0,0,0-.385,3.8c.6.9,1.23,1.769,1.853,2.647a1.36,1.36,0,0,1-.163,2.046,1.334,1.334,0,0,1-1.939-.505c-.729-1.015-1.464-2.027-2.142-3.076a5.1,5.1,0,0,1,.651-6.468c1.368-1.406,2.773-2.778,4.158-4.168.815-.818.813-1.3-.014-2.13q-4.891-4.9-9.789-9.791c-.815-.814-1.3-.8-2.123.017-.81.807-1.626,1.607-2.425,2.425a12.7,12.7,0,0,0-2.258,14.8,73.527,73.527,0,0,0,16.415,21.677,68.509,68.509,0,0,0,16.358,10.993,12.712,12.712,0,0,0,14.162-2.281c.968-.922,1.9-1.877,2.843-2.829a1.121,1.121,0,0,0,.02-1.806q-5.045-5.066-10.11-10.11a1.159,1.159,0,0,0-1.855.036c-1.363,1.352-2.712,2.717-4.075,4.068a5.1,5.1,0,0,1-6.916.682c-1.5-1.017-2.941-2.11-4.385-3.2a1.264,1.264,0,0,1-.4-1.615,1.237,1.237,0,0,1,1.392-.7,3,3,0,0,1,.891.493c1.314.94,2.6,1.915,3.929,2.837a2.575,2.575,0,0,0,3.659-.353c1.349-1.335,2.682-2.685,4.029-4.023a3.712,3.712,0,0,1,5.649-.006q4.993,4.98,9.974,9.973a3.694,3.694,0,0,1,.009,5.6,37.63,37.63,0,0,1-4.458,4.116,14.7,14.7,0,0,1-15.767,1.32,72.544,72.544,0,0,1-30.494-27.977c-1.166-1.908-2.21-3.894-3.251-5.875C51.027,231.263,50.539,229.073,50.541,225.383Z" transform="translate(-50.541 -202.685)"/>
  <path id="Path_101" data-name="Path 101" d="M333.183,200.262a20.791,20.791,0,0,1,19.63,16.171,34.2,34.2,0,0,1,.523,4.414,1.311,1.311,0,0,1-1.265,1.492,1.329,1.329,0,0,1-1.318-1.444,18.01,18.01,0,0,0-6.4-13.669,17.8,17.8,0,0,0-11.282-4.356c-1.221-.047-1.847-.529-1.8-1.367S331.955,200.245,333.183,200.262Z" transform="translate(-294.865 -192.483)"/>
  <path id="Path_102" data-name="Path 102" d="M332.981,260.188a13.016,13.016,0,0,1,12.5,11.646,9.853,9.853,0,0,1,.086,1.351,1.324,1.324,0,0,1-1.267,1.307,1.274,1.274,0,0,1-1.316-1.236,11.126,11.126,0,0,0-.915-4.259,10.191,10.191,0,0,0-8.8-6.147c-.236-.02-.473-.026-.709-.053a1.319,1.319,0,0,1-1.288-1.343,1.358,1.358,0,0,1,1.382-1.266C332.766,260.184,332.873,260.188,332.981,260.188Z" transform="translate(-294.87 -244.637)"/>
  <path id="Path_103" data-name="Path 103" d="M337.795,325.433a1.356,1.356,0,0,1-1.2,1.441,1.314,1.314,0,0,1-1.4-1.149c-.056-.294-.054-.6-.136-.889a2.523,2.523,0,0,0-2.321-1.828c-.968-.1-1.547-.688-1.448-1.461.106-.83.788-1.27,1.775-1.145A5.226,5.226,0,0,1,337.795,325.433Z" transform="translate(-294.876 -297.026)"/>
  <path id="Path_104" data-name="Path 104" d="M218.809,454.384a1.291,1.291,0,0,1,1.283,1.324,1.334,1.334,0,0,1-1.285,1.277,1.368,1.368,0,0,1-1.326-1.312A1.316,1.316,0,0,1,218.809,454.384Z" transform="translate(-195.833 -413.652)"/>
</svg>
