<svg id="r8Fe2V.tif" xmlns="http://www.w3.org/2000/svg" width="83.479" height="83.48" viewBox="0 0 83.479 83.48">
  <g id="Group_9" data-name="Group 9" transform="translate(0 0)">
    <path id="Path_110" data-name="Path 110" d="M134.068,184.8c-.213,1.5-.392,3.005-.645,4.5a40,40,0,0,1-7.972,18.129c-6.474,8.327-14.863,13.766-25.261,15.575-15.669,2.726-28.974-1.923-39.574-13.832a38.591,38.591,0,0,1-9.646-21.335c-1.817-14.89,2.881-27.458,14.12-37.441a40.287,40.287,0,0,1,21.4-9.733c1.015-.149,2.036-.256,3.054-.382h5.546c.235.052.467.123.7.154,1.477.2,2.973.3,4.431.587a41.229,41.229,0,0,1,25.087,15.423,40.03,40.03,0,0,1,8.115,18.315c.253,1.492.432,3,.644,4.5ZM92.3,221.33A39.3,39.3,0,1,0,53,182.037,39.358,39.358,0,0,0,92.3,221.33Z" transform="translate(-50.589 -140.277)"/>
    <path id="Path_112" data-name="Path 112" d="M100.967,223.157a31.407,31.407,0,0,1,14.123-27.229,30.748,30.748,0,0,1,14.117-5.009,31.258,31.258,0,0,1,14.163,1.818,32.526,32.526,0,0,1,9.182,5.328c.769.624,1.456.593,1.942.005s.312-1.336-.447-1.957a33.914,33.914,0,0,0-17.612-7.581,32.6,32.6,0,0,0-11.729.617,33.9,33.9,0,0,0-20.149,52.41c.6.87,1.267,1.7,1.944,2.514a1.249,1.249,0,0,0,1.746.235,1.191,1.191,0,0,0,.223-1.676c-.234-.365-.516-.7-.784-1.041A30.955,30.955,0,0,1,100.967,223.157Zm30.518,32.912a31.583,31.583,0,0,0,8.565-.868,33.993,33.993,0,0,0,25.86-38.034,32.969,32.969,0,0,0-5.72-14.382c-.587-.847-1.24-1.651-1.892-2.45a1.258,1.258,0,0,0-1.8-.29,1.23,1.23,0,0,0-.129,1.814c.217.311.465.6.7.9a30.9,30.9,0,0,1,5.632,27.585,30.179,30.179,0,0,1-10.291,16.044,30.667,30.667,0,0,1-17.192,7.072,31.118,31.118,0,0,1-14.143-1.968,32.725,32.725,0,0,1-8.876-5.214c-.767-.622-1.458-.589-1.942,0s-.307,1.333.453,1.957A33.847,33.847,0,0,0,131.486,256.069Zm4.724-33.235,13-1.987c.918-.14,1.47-.695,1.393-1.4-.084-.774-.738-1.193-1.7-1.048-4.158.624-8.316,1.246-12.468,1.906a.89.89,0,0,1-1.007-.412,3.564,3.564,0,0,0-3.95-1.414,1.355,1.355,0,0,1-1.522-.456q-6.061-6.105-12.159-12.173c-.736-.734-1.433-.79-1.989-.2-.539.57-.462,1.2.237,1.933.132.137.268.27.4.4q5.969,5.966,11.944,11.927a1,1,0,0,1,.332,1.184,3.75,3.75,0,0,0,1.967,4.516A3.9,3.9,0,0,0,136.21,222.834Zm-2.578-25.54c0-.785.024-1.571-.007-2.355a1.33,1.33,0,0,0-1.227-1.447,1.294,1.294,0,0,0-1.267,1.4q-.052,2.435,0,4.873c.02.908.511,1.39,1.263,1.38s1.195-.5,1.231-1.416C133.657,198.92,133.632,198.107,133.632,197.295Zm-26.1,26.136c.758,0,1.517.015,2.274,0,1.024-.025,1.551-.474,1.539-1.275-.012-.769-.522-1.216-1.5-1.23q-2.315-.034-4.63,0c-.942.014-1.512.5-1.525,1.232-.014.755.579,1.249,1.567,1.273C106.015,223.446,106.774,223.431,107.532,223.431Zm49.689,0c.758,0,1.517.015,2.274,0,.988-.024,1.581-.518,1.567-1.273-.013-.729-.583-1.218-1.525-1.231q-2.315-.034-4.63,0c-.978.014-1.489.461-1.5,1.23-.012.8.515,1.25,1.54,1.275C155.7,223.446,156.462,223.431,157.22,223.431Zm-23.588,23.587c0-.785.021-1.571-.005-2.355-.033-.965-.491-1.472-1.268-1.463-.747.009-1.212.495-1.231,1.414q-.047,2.395,0,4.791a1.318,1.318,0,0,0,1.224,1.448c.723.016,1.243-.563,1.275-1.481C133.654,248.589,133.633,247.8,133.633,247.018ZM118.908,197.2c-1.146.014-1.732.834-1.368,1.639a22.228,22.228,0,0,0,1.291,2.332,1.234,1.234,0,0,0,1.721.559,1.257,1.257,0,0,0,.41-1.77,18.714,18.714,0,0,0-1.224-2.094A3.182,3.182,0,0,0,118.908,197.2Zm28.51,1.022c-.253-.28-.5-.738-.881-.929a1.063,1.063,0,0,0-1.423.416c-.49.774-.967,1.561-1.384,2.376a1.2,1.2,0,0,0,.524,1.667,1.185,1.185,0,0,0,1.612-.495c.461-.729.88-1.485,1.3-2.24A5.071,5.071,0,0,0,147.417,198.222ZM112.09,209.563c-.108-.168-.238-.574-.516-.76a24.818,24.818,0,0,0-2.513-1.46,1.073,1.073,0,0,0-1.513.521,1.087,1.087,0,0,0,.3,1.519,19.518,19.518,0,0,0,2.509,1.472A1.252,1.252,0,0,0,112.09,209.563Zm41.836,1.672c1.187-.788,2.27-1.426,3.233-2.211.207-.169.143-1.017-.1-1.289a1.474,1.474,0,0,0-1.312-.373,10.776,10.776,0,0,0-2.581,1.479,1.513,1.513,0,0,0-.355,1.325C152.923,210.549,153.459,210.811,153.926,211.235Zm-34.182,31.229c-.159.1-.545.217-.715.476a26.558,26.558,0,0,0-1.5,2.584,1.066,1.066,0,0,0,.56,1.5,1.115,1.115,0,0,0,1.52-.341,19.7,19.7,0,0,0,1.419-2.448A1.242,1.242,0,0,0,119.744,242.464Zm25.325,0a1.262,1.262,0,0,0-1.319,1.841c.368.749.808,1.464,1.244,2.177a1.3,1.3,0,0,0,1.673.553,1.247,1.247,0,0,0,.473-1.744,20.137,20.137,0,0,0-1.266-2.163A3.229,3.229,0,0,0,145.069,242.466Zm-32.977-7.645a1.262,1.262,0,0,0-1.834-1.283,22.541,22.541,0,0,0-2.32,1.351,1.215,1.215,0,0,0,1.262,2.076,21.369,21.369,0,0,0,2.245-1.318A3.023,3.023,0,0,0,112.092,234.821Zm45.257.865c-.076-.132-.175-.529-.427-.7a20.632,20.632,0,0,0-2.6-1.511,1.2,1.2,0,0,0-1.137,2.085,20.887,20.887,0,0,0,2.536,1.457C156.514,237.394,157.353,236.77,157.349,235.686Z" transform="translate(-90.653 -180.425)"/>
    <path id="Path_115" data-name="Path 115" d="M223.116,309.8a3.9,3.9,0,0,1-5.525,2.78,3.75,3.75,0,0,1-1.967-4.516.994.994,0,0,0-.332-1.184q-5.982-5.953-11.944-11.927c-.134-.134-.271-.267-.4-.4-.7-.729-.775-1.362-.237-1.932.556-.589,1.253-.533,1.989.2q6.089,6.077,12.159,12.173a1.355,1.355,0,0,0,1.522.456,3.564,3.564,0,0,1,3.95,1.414.89.89,0,0,0,1.007.412c4.152-.66,8.31-1.282,12.468-1.906.965-.145,1.618.273,1.7,1.048.077.706-.474,1.26-1.393,1.4Zm-2.5-.678a1.336,1.336,0,1,0-1.3,1.353A1.291,1.291,0,0,0,220.617,309.122Z" transform="translate(-177.559 -267.391)"/>
    <path id="Path_116" data-name="Path 116" d="M300.7,224.056c0,.812.025,1.625-.007,2.436-.037.921-.485,1.406-1.231,1.416s-1.243-.473-1.263-1.38q-.053-2.435,0-4.873a1.294,1.294,0,0,1,1.267-1.4A1.33,1.33,0,0,1,300.7,221.7C300.728,222.485,300.7,223.271,300.7,224.056Z" transform="translate(-257.724 -207.186)"/>
    <path id="Path_117" data-name="Path 117" d="M134.224,390.563c-.758,0-1.517.015-2.274,0-.988-.024-1.581-.518-1.567-1.273.013-.729.583-1.218,1.525-1.232q2.315-.034,4.63,0c.978.014,1.489.461,1.5,1.23.012.8-.515,1.25-1.539,1.275C135.74,390.578,134.982,390.563,134.224,390.563Z" transform="translate(-117.345 -347.557)"/>
    <path id="Path_118" data-name="Path 118" d="M438.485,390.563c-.758,0-1.517.015-2.274,0-1.024-.025-1.552-.474-1.54-1.275.011-.769.522-1.216,1.5-1.23q2.315-.034,4.63,0c.943.014,1.512.5,1.525,1.231.014.755-.579,1.25-1.567,1.273C440,390.578,439.243,390.563,438.485,390.563Z" transform="translate(-371.917 -347.557)"/>
    <path id="Path_119" data-name="Path 119" d="M300.708,528.311c0,.785.022,1.571-.006,2.355-.032.918-.552,1.5-1.275,1.481A1.318,1.318,0,0,1,298.2,530.7q-.043-2.4,0-4.792c.018-.92.484-1.406,1.231-1.414.777-.009,1.235.5,1.268,1.463C300.729,526.74,300.708,527.526,300.708,528.311Z" transform="translate(-257.728 -461.718)"/>
    <path id="Path_120" data-name="Path 120" d="M215.97,242.944a3.181,3.181,0,0,1,.83.666,18.706,18.706,0,0,1,1.224,2.094,1.257,1.257,0,0,1-.41,1.77,1.234,1.234,0,0,1-1.721-.559,22.214,22.214,0,0,1-1.291-2.332C214.238,243.778,214.824,242.958,215.97,242.944Z" transform="translate(-187.714 -226.17)"/>
    <path id="Path_121" data-name="Path 121" d="M378.377,243.812a5.071,5.071,0,0,1-.254.8c-.419.755-.838,1.511-1.3,2.24a1.185,1.185,0,0,1-1.612.495,1.2,1.2,0,0,1-.524-1.667c.417-.815.894-1.6,1.384-2.376a1.063,1.063,0,0,1,1.423-.416C377.877,243.074,378.124,243.532,378.377,243.812Z" transform="translate(-321.612 -226.015)"/>
    <path id="Path_122" data-name="Path 122" d="M157.6,306.527a1.252,1.252,0,0,1-1.734,1.291,19.518,19.518,0,0,1-2.509-1.472,1.087,1.087,0,0,1-.3-1.519,1.073,1.073,0,0,1,1.513-.521,24.826,24.826,0,0,1,2.513,1.46C157.366,305.953,157.5,306.359,157.6,306.527Z" transform="translate(-136.167 -277.39)"/>
    <path id="Path_123" data-name="Path 123" d="M431.988,308.789c-.467-.423-1-.686-1.111-1.069a1.513,1.513,0,0,1,.355-1.325,10.778,10.778,0,0,1,2.581-1.479,1.474,1.474,0,0,1,1.313.373c.239.271.3,1.12.1,1.289C434.258,307.364,433.175,308,431.988,308.789Z" transform="translate(-368.715 -277.98)"/>
    <path id="Path_124" data-name="Path 124" d="M216.644,519.978a1.242,1.242,0,0,1,1.289,1.768,19.711,19.711,0,0,1-1.419,2.448,1.115,1.115,0,0,1-1.52.341,1.065,1.065,0,0,1-.56-1.5,26.561,26.561,0,0,1,1.5-2.584C216.1,520.2,216.485,520.079,216.644,519.978Z" transform="translate(-187.553 -457.94)"/>
    <path id="Path_125" data-name="Path 125" d="M376.119,519.99a3.226,3.226,0,0,1,.806.664,20.137,20.137,0,0,1,1.266,2.163,1.247,1.247,0,0,1-.473,1.744,1.3,1.3,0,0,1-1.673-.553c-.436-.713-.876-1.429-1.244-2.177A1.262,1.262,0,0,1,376.119,519.99Z" transform="translate(-321.703 -457.949)"/>
    <path id="Path_126" data-name="Path 126" d="M157.7,465.882a3.021,3.021,0,0,1-.646.826,21.344,21.344,0,0,1-2.245,1.318,1.215,1.215,0,0,1-1.262-2.076,22.543,22.543,0,0,1,2.32-1.351A1.262,1.262,0,0,1,157.7,465.882Z" transform="translate(-136.264 -411.486)"/>
    <path id="Path_127" data-name="Path 127" d="M434.754,466.594c0,1.083-.835,1.708-1.625,1.334a20.9,20.9,0,0,1-2.536-1.457,1.2,1.2,0,0,1,1.137-2.085,20.623,20.623,0,0,1,2.6,1.511C434.579,466.065,434.678,466.462,434.754,466.594Z" transform="translate(-368.058 -411.333)"/>
    <path id="Path_128" data-name="Path 128" d="M300.447,388.943a1.336,1.336,0,1,1-1.333-1.318A1.291,1.291,0,0,1,300.447,388.943Z" transform="translate(-257.388 -347.212)"/>
  </g>
</svg>
