<svg id="Group_8" data-name="Group 8" xmlns="http://www.w3.org/2000/svg" width="66.407" height="66.782" viewBox="0 0 66.407 66.782">
  <path id="Path_105" data-name="Path 105" d="M86.628,140.277c1.178.17,2.367.287,3.533.518,11.575,2.3,19.779,8.88,24.607,19.606a31.1,31.1,0,0,1,2.525,15.641A32.975,32.975,0,0,1,91.343,205.7a32.558,32.558,0,0,1-21.786-2.734,1.747,1.747,0,0,0-1.346-.145q-7.585,2.075-15.182,4.106c-1.061.286-1.411.144-2.011-.777v-.913c.366-1.214.751-2.423,1.1-3.643q1.627-5.756,3.215-11.522a1.338,1.338,0,0,0-.092-.9,32.9,32.9,0,0,1-3.922-18.146,32.335,32.335,0,0,1,5.988-16.76,1.315,1.315,0,0,1,1.914-.455,1.329,1.329,0,0,1,.236,1.957,30.476,30.476,0,0,0-1.727,32.408,2.761,2.761,0,0,1,.264,2.279c-1.248,4.332-2.446,8.678-3.66,13.019-.023.082-.035.168-.065.312a2.487,2.487,0,0,0,.444-.034c4.5-1.211,9-2.413,13.491-3.657a2.421,2.421,0,0,1,1.922.2,29.948,29.948,0,0,0,15.692,3.5,30.448,30.448,0,0,0,8.875-59.045c-9.689-3.443-18.923-2.2-27.536,3.46-.181.119-.353.255-.538.367a1.31,1.31,0,1,1-1.472-2.166,32.676,32.676,0,0,1,16.416-6.013,3.366,3.366,0,0,0,.5-.115Z" transform="translate(-51.018 -140.277)"/>
  <path id="Path_106" data-name="Path 106" d="M97.886,230.96c1.277-.347,2.42-.66,3.564-.969,1.234-.333,2.476-.64,3.7-1a2.038,2.038,0,0,1,1.737.211,26.3,26.3,0,0,0,8.921,3.481,25.039,25.039,0,0,0,18.169-3.475c.111-.069.22-.139.331-.208a1.337,1.337,0,0,1,2,.263,1.359,1.359,0,0,1-.566,1.941,26.319,26.319,0,0,1-6.3,3.066,27.67,27.67,0,0,1-22.7-2.152,2.55,2.55,0,0,0-2.132-.262c-2.641.772-5.312,1.441-7.966,2.169a1.386,1.386,0,0,1-1.834-1.888c.762-2.667,1.5-5.341,2.267-8.006a1.568,1.568,0,0,0-.181-1.4,27.039,27.039,0,0,1-3.925-10.4A27.915,27.915,0,0,1,113.445,180.9a27.86,27.86,0,0,1,34.878,28.468,27.266,27.266,0,0,1-4.536,13.808,1.32,1.32,0,1,1-2.207-1.418,24.925,24.925,0,0,0,3.821-9.874,25.284,25.284,0,0,0-21.163-28.964,25.264,25.264,0,0,0-25.35,38.041c1.376,2.353,1.351,1.579.575,4.335C98.946,227.126,98.441,228.965,97.886,230.96Z" transform="translate(-87.182 -174.788)"/>
  <path id="Path_107" data-name="Path 107" d="M126.534,212.656a1.275,1.275,0,0,1-1.3,1.309,1.3,1.3,0,0,1-1.3-1.261,1.349,1.349,0,0,1,1.282-1.361A1.321,1.321,0,0,1,126.534,212.656Z" transform="translate(-114.403 -202.054)"/>
  <path id="Path_108" data-name="Path 108" d="M440.786,529.74a1.378,1.378,0,0,1-1.343-1.315,1.336,1.336,0,0,1,1.263-1.314,1.3,1.3,0,0,1,1.358,1.266A1.329,1.329,0,0,1,440.786,529.74Z" transform="translate(-388.677 -476.552)"/>
  <path id="Path_109" data-name="Path 109" d="M216.632,320.129a18.4,18.4,0,0,1-7.566-1.926,31.588,31.588,0,0,1-15.09-14.46,9.119,9.119,0,0,1-1.22-4.672,8.283,8.283,0,0,1,1.344-4.424,3.46,3.46,0,0,1,3.694-1.62.944.944,0,0,1,.608.459c.838,1.857,1.633,3.733,2.455,5.6a1.21,1.21,0,0,1-.271,1.527c-.483.466-.9,1-1.347,1.5a2.685,2.685,0,0,0-.33,3.417,24.549,24.549,0,0,0,10.317,9.19,6.115,6.115,0,0,0,1.411.483,2.76,2.76,0,0,0,3.034-.969c.591-.778,1.208-1.537,1.79-2.322a.9.9,0,0,1,1.318-.313c1.675.866,3.386,1.664,5.064,2.526a.978.978,0,0,1,.458.68,4.537,4.537,0,0,1-3.743,5.025C217.8,320.008,217.02,320.071,216.632,320.129Z" transform="translate(-174.226 -273.004)"/>
</svg>
