<svg xmlns="http://www.w3.org/2000/svg" xmlns:xlink="http://www.w3.org/1999/xlink" width="90.73" height="90.73" viewBox="0 0 90.73 90.73">
  <defs>
    <filter id="Path_36" x="0" y="0" width="90.73" height="90.73" filterUnits="userSpaceOnUse">
      <feOffset dy="3" input="SourceAlpha"/>
      <feGaussianBlur stdDeviation="3" result="blur"/>
      <feFlood flood-opacity="0.161"/>
      <feComposite operator="in" in2="blur"/>
      <feComposite in="SourceGraphic"/>
    </filter>
  </defs>
  <g id="WA_STICKY" data-name="WA STICKY" transform="translate(-1769 -911)">
    <g id="Group_364" data-name="Group 364" transform="translate(1778 917)">
      <g transform="matrix(1, 0, 0, 1, -9, -6)" filter="url(#Path_36)">
        <path id="Path_36-2" data-name="Path 36" d="M36.365,0A36.365,36.365,0,1,1,0,36.365,36.365,36.365,0,0,1,36.365,0Z" transform="translate(9 6)" fill="#fafafa" opacity="0.811"/>
      </g>
      <path id="Icon_ionic-logo-whatsapp" data-name="Icon ionic-logo-whatsapp" d="M20.672,40.607A19.858,19.858,0,0,1,.737,20.826,19.576,19.576,0,0,1,3.6,10.612L0,0,11.037,3.506a19.968,19.968,0,0,1,29.57,17.32A19.858,19.858,0,0,1,20.672,40.607Zm9.913-27.293c-.469-1.163-2.59-2.224-3.526-2.273S26.1,10.317,21,12.531s-8.162,7.6-8.4,7.946a9.776,9.776,0,0,0-1.881,5.3,5.649,5.649,0,0,0,1.94,4.145,1.952,1.952,0,0,0,1.381.581c.4.007.661.012.958,0s.743.062,1.128-.964,1.309-3.549,1.427-3.806a.924.924,0,0,0,.009-.886,3.462,3.462,0,0,0-.54-.823c-.266-.285-.56-.638-.8-.856-.265-.242-.541-.505-.263-1.021a15.255,15.255,0,0,1,2.7-3.6,13.909,13.909,0,0,1,4-2.657c.5-.272.8-.242,1.108.084s1.327,1.427,1.686,1.919.694.4,1.155.211,2.915-1.5,3.415-1.772.833-.411.953-.625A4.186,4.186,0,0,0,30.584,13.314Z" transform="translate(16.061 56.668) rotate(-90)" fill="#009812"/>
    </g>
  </g>
</svg>
